<svg id="Capa_1" enable-background="new 0 0 512 512" height="512" viewBox="0 0 512 512" width="512" xmlns="http://www.w3.org/2000/svg"><g><g><path d="m7.5 382.848v-345.348c0-16.569 13.431-30 30-30h437c16.569 0 30 13.431 30 30v345.348z" fill="#eaf6ff"/><path d="m504.5 382.848v-345.348c0-16.569-13.431-30-30-30h-30c16.569 0 30 13.431 30 30v345.348z" fill="#d8ecfe"/><path d="m37.5 504.5h437c16.569 0 30-13.431 30-30v-91.652h-497v91.652c0 16.569 13.431 30 30 30z" fill="#3f6e90"/><path d="m474.5 382.848v91.652c0 16.569-13.431 30-30 30h30c16.569 0 30-13.431 30-30v-91.652z" fill="#355f7f"/><g><path d="m270.738 265.926v-41.92h-29.476v41.92c0 9.45-6.615 17.611-15.86 19.567l-22.135 1.51-36.292 7.679c-27.736 5.869-47.58 30.35-47.58 58.7v29.466h273.208v-29.466c0-28.35-19.844-52.832-47.58-58.7l-36.292-7.679-22.135-1.51c-9.244-1.956-15.858-10.117-15.858-19.567z" fill="#f58a97"/><g><path d="m291.244 304.65 23.78 5.032c27.736 5.869 47.58 30.35 47.58 58.7v14.466h30v-29.466c0-28.35-19.844-52.832-47.58-58.7l-36.292-7.679z" fill="#f07281"/></g><path d="m203.268 287.002c11.304 17.104 30.696 28.394 52.732 28.394s41.428-11.29 52.732-28.394l-22.135-1.51c-9.245-1.956-15.86-10.117-15.86-19.567v-41.92h-44.476v41.92c0 9.45-6.615 17.611-15.86 19.567z" fill="#ffcebf"/><path d="m271.598 300.493 19.646 4.157c6.927-4.669 12.88-10.675 17.488-17.647l-7.135-1.51c-9.245-1.956-15.86-10.117-15.86-19.567v-41.92h-30v56.92c.001 9.45 6.615 17.611 15.861 19.567z" fill="#ffb09e"/><g><g><g><path d="m331.983 159.048h-151.968v-91.548c0-16.569 13.431-30 30-30h91.968c16.569 0 30 13.431 30 30z" fill="#e19974"/><path d="m301.983 37.5h-30c16.569 0 30 13.431 30 30v91.548h30v-91.548c0-16.569-13.432-30-30-30z" fill="#dc8758"/><path d="m331.983 132.654c-6.503-1.875-17.202-5.857-27.996-14.587-9.473-7.662-15.429-16.077-19.001-22.275-1.085-1.883-3.609-2.309-5.241-.88-7.188 6.298-16.214 13.026-27.252 19.051-28.86 15.753-56.398 18.468-72.477 18.69v48.691c0 31.571 19.06 58.667 46.246 70.299 9.134 3.908 29.738 2.197 29.738 2.197 10.491 0 20.485 1.736 29.575-2.129 27.272-11.593 46.407-38.734 46.407-70.367v-48.69z" fill="#ffcebf"/><path d="m303.987 118.067c-9.494-7.679-15.456-16.115-19.025-22.316-1.077-1.872-3.59-2.263-5.215-.84-4.703 4.121-10.21 8.424-16.536 12.596 2.947 3.492 6.5 7.102 10.776 10.56 4.945 4 9.871 7.003 14.382 9.263 8.309 4.163 13.615 12.589 13.615 21.882v32.133c.197 5.017.602 28.874-17.45 48.693-22.627 24.843-54.792 21.975-58.271 21.605 6.149 2.587 13.969 4.985 23.179 5.788 2.282.199 4.471.284 6.558.283 41.965 0 75.984-34.192 75.984-76.369v-48.691c-6.504-1.875-17.203-5.857-27.997-14.587z" fill="#ffb09e"/><path d="m341.27 168.705h-9.288v-36.05h9.288c9.93 0 17.98 8.05 17.98 17.98v.091c0 9.929-8.05 17.979-17.98 17.979z" fill="#ffcebf"/><path d="m170.728 168.705h9.288v-36.05h-9.288c-9.93 0-17.98 8.05-17.98 17.98v.091c0 9.929 8.05 17.979 17.98 17.979z" fill="#ffb09e"/></g></g></g></g><g><path d="m254.862 469.633c.736.277 1.541.272 2.275-.013 6.896-2.682 20.608-11.84 26.968-20.821 5.636-7.957 4.802-18.925-1.984-25.877-6.708-6.872-17.24-7.204-23.942-.959-1.231 1.147-3.127 1.147-4.358-.001-6.699-6.244-17.226-5.921-23.942.959-6.786 6.952-7.619 17.92-1.984 25.877 6.744 9.524 20.074 18.245 26.967 20.835z" fill="#f58a97"/><path d="m282.121 422.923c-6.708-6.872-17.24-7.204-23.942-.959-1.231 1.147-3.127 1.147-4.359 0-3.575-3.333-8.241-4.775-12.836-4.368 2.217 1.695 6.433 5.394 9.195 11.591 1.102 2.471 3.544 8.149 2.357 15.231-1.737 10.362-9.946 15.986-11.627 17.087 5.172 3.844 10.411 6.798 13.951 8.129.736.277 1.541.272 2.275-.013 6.896-2.682 20.608-11.84 26.968-20.821 5.637-7.957 4.804-18.926-1.982-25.877z" fill="#f07281"/><g><path d="m145.417 460.536h-21.241c-1.09 0-2.136.527-2.907 1.464l-8.223 10c-1.606 1.953-4.209 1.953-5.815 0l-8.223-10c-.771-.938-1.817-1.464-2.907-1.464h-21.243c-2.271 0-4.112-2.239-4.112-5v-36.652c0-2.761 1.841-5 4.112-5h70.559c2.271 0 4.112 2.239 4.112 5v36.652c-.001 2.761-1.841 5-4.112 5z" fill="#fddf80"/><path d="m145.417 413.883h-30c2.271 0 4.112 2.239 4.112 5v12.936c0 13.831-9.668 25.78-23.195 28.667l-.234.05c1.09 0 2.136.527 2.907 1.464l8.223 10c1.599 1.945 4.216 1.945 5.815 0l8.223-10c.771-.938 1.817-1.464 2.907-1.464h21.241c2.271 0 4.112-2.239 4.112-5v-36.652c0-2.762-1.84-5.001-4.111-5.001z" fill="#f9d070"/><path d="m435.358 472.976-20.079-10.92c-1.184-.644-2.608-.644-3.791 0l-20.079 10.92c-2.665 1.449-5.896-.501-5.896-3.559v-51.491c0-2.232 1.791-4.042 4-4.042h47.74c2.209 0 4 1.81 4 4.042v51.491c0 3.058-3.23 5.008-5.895 3.559z" fill="#aee49e"/><g><path d="m437.253 413.883h-30c2.209 0 4 1.81 4 4.042v44.258l.234-.127c1.184-.644 2.608-.644 3.791 0l20.079 10.92c2.665 1.449 5.896-.501 5.896-3.559v-51.491c0-2.233-1.791-4.043-4-4.043z" fill="#8bd8a5"/></g></g></g></g><path d="m292.66 177.091c4.142 0 7.5-3.358 7.5-7.5v-14.738c0-4.142-3.358-7.5-7.5-7.5s-7.5 3.358-7.5 7.5v14.738c0 4.142 3.358 7.5 7.5 7.5zm-18.376 49.714c3.627-2 4.947-6.561 2.947-10.188-1.999-3.627-6.56-4.947-10.188-2.947-2.41 1.328-6.344 2.892-11.283 2.848-4.75-.05-8.497-1.577-10.803-2.848-3.626-2-8.188-.68-10.189 2.947-2 3.627-.681 8.189 2.947 10.189 5.471 3.017 11.656 4.646 17.888 4.711 7.956.083 14.754-2.548 18.681-4.712zm-54.946-79.452c-4.142 0-7.5 3.358-7.5 7.5v14.738c0 4.142 3.358 7.5 7.5 7.5s7.5-3.358 7.5-7.5v-14.738c0-4.143-3.358-7.5-7.5-7.5zm-144.48 320.683h19.402l7.178 8.729c2.196 2.669 5.367 4.201 8.701 4.2 3.333 0 6.504-1.531 8.699-4.201l7.177-8.728h19.402c6.402 0 11.611-5.607 11.611-12.5v-36.652c0-6.893-5.209-12.5-11.611-12.5h-70.559c-6.403 0-11.612 5.607-11.612 12.5v36.652c.001 6.892 5.21 12.5 11.612 12.5zm3.389-46.653h63.782v31.652h-17.853c-3.334 0-6.505 1.531-8.701 4.201l-5.337 6.491-5.338-6.491c-2.195-2.669-5.366-4.201-8.7-4.201h-17.853zm426.253-119.361c4.142 0 7.5-3.358 7.5-7.5v-257.022c0-20.678-16.822-37.5-37.5-37.5h-437c-20.678 0-37.5 16.822-37.5 37.5v437c0 20.678 16.822 37.5 37.5 37.5h437c20.678 0 37.5-16.822 37.5-37.5v-144.978c0-4.142-3.358-7.5-7.5-7.5s-7.5 3.358-7.5 7.5v45.825h-96.9v-21.967c0-31.702-22.512-59.475-53.527-66.037l-43.426-9.191c-5.741-1.21-9.907-6.35-9.907-12.221v-9.556c27.386-13.775 46.243-42.224 46.243-75.029v-5.141c14.561.624 27.267-10.535 27.267-25.571 0-14.792-12.561-26.354-27.267-25.479v-57.655c0-20.678-16.822-37.5-37.5-37.5h-25.908c-4.142 0-7.5 3.358-7.5 7.5s3.358 7.5 7.5 7.5h25.908c12.407 0 22.5 10.093 22.5 22.5v54.429c-5.636-2.529-10.921-5.763-15.78-9.693-6.94-5.613-12.734-12.406-17.219-20.188-1.645-2.854-4.45-4.799-7.695-5.337-3.238-.535-6.515.396-8.986 2.562-7.976 6.988-16.69 13.081-25.903 18.109-18.534 10.117-39.615 16.088-61.384 17.466v-57.348c0-12.407 10.093-22.5 22.5-22.5h31.06c4.142 0 7.5-3.358 7.5-7.5s-3.358-7.5-7.5-7.5h-31.06c-20.678 0-37.5 16.822-37.5 37.5v57.654c-14.753-1.086-27.267 10.876-27.267 25.57 0 14.516 12.577 26.549 27.267 25.48v5.141c0 32.806 18.857 61.255 46.245 75.03v9.555c0 5.871-4.167 11.011-9.913 12.223l-43.419 9.19c-31.016 6.563-53.527 34.335-53.527 66.037v21.968h-96.902v-337.848c0-12.407 10.093-22.5 22.5-22.5h437c12.407 0 22.5 10.093 22.5 22.5v257.022c0 4.143 3.358 7.5 7.5 7.5zm-165.017-161.868c6.34-.813 12.267 3.991 12.267 10.57 0 6.405-5.908 11.317-12.267 10.48zm-166.968 21.051c-6.387.782-12.267-3.965-12.267-10.571 0-6.483 5.948-11.26 12.267-10.479zm15 20.14v-41.456c24.285-1.4 47.849-8.031 68.571-19.342 8.782-4.793 17.15-10.459 24.935-16.877 5 7.675 11.122 14.465 18.249 20.229 7.607 6.153 16.068 10.918 25.213 14.208v43.239c0 37.974-30.722 68.869-68.484 68.869s-68.484-30.896-68.484-68.87zm46.245 84.585v-3.762c7.086 1.97 14.538 3.045 22.239 3.045 7.702 0 15.155-1.075 22.241-3.046v3.762c0 11.309 7.027 21.385 17.25 25.51-10.354 10.443-24.478 16.457-39.49 16.457s-29.136-6.015-39.49-16.458c10.225-4.125 17.25-14.2 17.25-25.508zm-106.86 87.45c0-24.657 17.509-46.258 41.633-51.362l31.497-6.666c13.354 17.335 33.911 27.545 55.971 27.545s42.617-10.21 55.971-27.546l31.496 6.666c24.124 5.104 41.633 26.706 41.633 51.362v21.968h-258.201zm370.1 36.968v84.152c0 12.407-10.093 22.5-22.5 22.5h-437c-12.407 0-22.5-10.093-22.5-22.5v-84.152zm-244.778 86.305c2.466.927 5.177.912 7.632-.042 7.952-3.093 22.93-12.971 30.371-23.477 7.764-10.962 6.612-25.872-2.737-35.45-8.629-8.841-21.823-10.118-31.487-3.551-9.664-6.568-22.859-5.291-31.489 3.551-9.35 9.579-10.501 24.488-2.737 35.451 7.952 11.227 22.869 20.671 30.447 23.518zm-16.976-48.491c3.688-3.779 9.596-4.317 13.459-.713 4.088 3.813 10.495 3.814 14.586.003 3.75-3.495 9.662-3.183 13.462.71 4.221 4.325 4.75 11.333 1.231 16.303-4.865 6.868-15.742 14.534-22.032 17.5-6.348-2.896-16.806-10.254-21.938-17.5-3.518-4.97-2.989-11.979 1.232-16.303zm148.407 51.186c3.515 2.089 7.753 2.167 11.339.217l18.391-10.002 18.391 10.002c3.589 1.951 7.828 1.87 11.339-.217 3.531-2.1 5.64-5.812 5.64-9.931v-51.491c0-6.364-5.159-11.542-11.5-11.542h-47.74c-6.341 0-11.5 5.178-11.5 11.542v51.491c0 4.119 2.109 7.832 5.64 9.931zm9.36-57.965h40.74v42.183l-14.89-8.098c-1.716-.934-3.599-1.4-5.481-1.4s-3.764.466-5.479 1.399l-14.891 8.099v-42.183z"/></g></svg>