<svg id="avatar7" enable-background="new 0 0 300 300" height="512" viewBox="0 0 300 300" width="512" xmlns="http://www.w3.org/2000/svg"><g><circle cx="66" cy="48" fill="#4c241d" r="4.529"/><circle cx="180" cy="122" fill="#ffe8dc" r="88"/><g><circle cx="144" cy="154" fill="#9dc1e4" r="108"/><path d="m144 266c-61.758 0-112-50.242-112-112s50.242-112 112-112 112 50.242 112 112-50.242 112-112 112zm0-216c-57.348 0-104 46.654-104 104s46.652 104 104 104 104-46.654 104-104-46.652-104-104-104z" fill="#4c241d"/></g><g><path d="m103.036 146.387c-.97-.253-1.987-.387-3.036-.387-6.627 0-12 5.373-12 12s5.373 12 12 12c1.657 0 3.235-.336 4.671-.943" fill="#ffded5"/><path d="m100 174c-8.824 0-16-7.178-16-16s7.176-16 16-16c1.367 0 2.727.174 4.043.516 2.137.557 3.418 2.74 2.863 4.879-.559 2.139-2.746 3.416-4.879 2.863-.656-.172-1.34-.258-2.027-.258-4.41 0-8 3.588-8 8s3.59 8 8 8c1.082 0 2.129-.211 3.113-.627 2.043-.857 4.383.09 5.242 2.127.859 2.035-.09 4.381-2.125 5.24-1.976.836-4.074 1.26-6.23 1.26z" fill="#4c241d"/></g><g><path d="m183.238 169.018c1.46.632 3.07.982 4.762.982 6.627 0 12-5.373 12-12s-5.373-12-12-12c-1.028 0-2.026.129-2.978.373" fill="#ffded5"/><path d="m188 174c-2.203 0-4.344-.441-6.352-1.312-2.027-.877-2.957-3.232-2.082-5.26.879-2.025 3.219-2.965 5.262-2.08 1 .434 2.066.652 3.172.652 4.41 0 8-3.588 8-8s-3.59-8-8-8c-.676 0-1.344.084-1.98.246-2.109.551-4.32-.734-4.871-2.877-.551-2.139.738-4.32 2.879-4.869 1.289-.332 2.625-.5 3.973-.5 8.824 0 16 7.178 16 16s-7.177 16-16.001 16z" fill="#4c241d"/></g><g><path d="m144 262c19.091 0 37.013-4.973 52.575-13.665-5.25-10.3-16.238-18.619-30.208-22.982-6.127-1.914-10.367-7.494-10.367-13.913v-6.771l-24 .315v6.456c0 6.419-4.24 11.999-10.367 13.913-13.97 4.363-24.958 12.682-30.208 22.982 15.562 8.692 33.484 13.665 52.575 13.665z" fill="#fff"/><path d="m144 266c-19.07 0-37.926-4.9-54.523-14.172-1.879-1.049-2.59-3.393-1.613-5.309 5.703-11.193 17.578-20.301 32.578-24.986 4.52-1.41 7.559-5.467 7.559-10.094v-6.455c0-2.189 1.758-3.971 3.949-4l24-.316c.984.061 2.102.404 2.859 1.152.762.752 1.191 1.777 1.191 2.848v6.771c0 4.627 3.039 8.684 7.559 10.094 15 4.686 26.875 13.793 32.578 24.986.977 1.916.266 4.26-1.613 5.309-16.598 9.272-35.454 14.172-54.524 14.172zm-47-19.229c14.504 7.358 30.664 11.229 47 11.229s32.496-3.871 47-11.229c-5.285-7.75-14.477-14.057-25.824-17.602-7.879-2.459-13.176-9.584-13.176-17.73v-2.719l-16 .211v2.508c0 8.146-5.297 15.271-13.176 17.73-11.347 3.546-20.539 9.852-25.824 17.602z" fill="#4c241d"/></g><path d="m249.656 59.656c-1.023 0-2.047-.391-2.828-1.172l-11.312-11.312c-1.562-1.562-1.562-4.094 0-5.656s4.094-1.562 5.656 0l11.312 11.312c1.562 1.562 1.562 4.094 0 5.656-.781.782-1.804 1.172-2.828 1.172z" fill="#4c241d"/><g><path d="m168.795 226.219c-.811-.288-1.595-.606-2.427-.866-6.128-1.914-10.368-7.494-10.368-13.913v-6.771l-24 .315v6.456c0 6.419-4.24 11.999-10.367 13.913-.832.26-1.617.579-2.427.866 5.867 7.187 14.792 11.781 24.794 11.781s18.927-4.594 24.795-11.781z" fill="#ffded5"/><path d="m144 242c-10.852 0-21.016-4.83-27.891-13.252-.824-1.008-1.105-2.354-.754-3.605.348-1.254 1.285-2.258 2.512-2.693l.789-.289c.582-.217 1.168-.434 1.777-.625 4.527-1.412 7.566-5.469 7.566-10.096v-6.455c0-2.189 1.758-3.971 3.949-4l24-.316c.984.061 2.102.404 2.859 1.152.762.752 1.191 1.777 1.191 2.848v6.771c0 4.627 3.039 8.684 7.559 10.094.617.193 1.203.41 1.785.627l.789.289c1.227.436 2.164 1.439 2.512 2.693.352 1.252.07 2.598-.754 3.605-6.873 8.422-17.037 13.252-27.889 13.252zm-17.695-14.303c4.957 4.053 11.168 6.303 17.695 6.303s12.738-2.25 17.691-6.303c-5.914-3.227-9.691-9.377-9.691-16.258v-2.719l-16 .211v2.508c0 6.879-3.773 13.03-9.695 16.258z" fill="#4c241d"/></g><g><path d="m184 110h-80.589v36.345l1.828 23.761c1.558 20.254 18.447 35.894 38.761 35.894 20.314 0 37.203-15.64 38.761-35.894l1.842-23.941z" fill="#ffded5"/><path d="m144 210c-22.262 0-41.043-17.389-42.75-39.588l-1.828-23.762-.012-36.65c0-2.209 1.789-4 4-4h80.59c2.184 0 3.965 1.75 4 3.934l.602 36.164-1.852 24.314c-1.707 22.199-20.484 39.588-42.75 39.588zm-36.59-96v32.344l1.816 23.455c1.391 18.056 16.665 32.201 34.774 32.201s33.383-14.145 34.773-32.201l1.84-23.941-.547-31.858z" fill="#4c241d"/></g><g><path d="m165.002 106c-5.132-4.609-12.674-7.519-21.08-7.519-8.364 0-15.871 2.881-21.002 7.45v16.55c5.133 4.608 12.674 7.519 21.08 7.519 8.364 0 15.871-2.881 21.002-7.45z" fill="#ffce56"/><path d="m144 134c-9.051 0-17.711-3.115-23.75-8.545-.848-.758-1.328-1.84-1.328-2.975v-16.55c0-1.141.488-2.229 1.34-2.986 6.039-5.379 14.66-8.463 23.66-8.463 9.051 0 17.707 3.113 23.754 8.543.844.76 1.328 1.842 1.328 2.977v16.551c0 1.143-.488 2.229-1.34 2.988-6.043 5.376-14.668 8.46-23.664 8.46zm-17.078-13.396c4.508 3.447 10.633 5.396 17.078 5.396 6.402 0 12.496-1.93 17.004-5.338v-12.785c-4.512-3.447-10.637-5.396-17.082-5.396-6.402 0-12.496 1.928-17 5.336z" fill="#4c241d"/></g><g fill="#4c241d"><path d="m238.344 59.656c-1.023 0-2.047-.391-2.828-1.172-1.562-1.562-1.562-4.094 0-5.656l11.312-11.312c1.562-1.562 4.094-1.562 5.656 0s1.562 4.094 0 5.656l-11.312 11.312c-.781.782-1.805 1.172-2.828 1.172z"/><path d="m246 250c-7.719 0-14-6.281-14-14s6.281-14 14-14 14 6.281 14 14-6.281 14-14 14zm0-20c-3.309 0-6 2.691-6 6s2.691 6 6 6 6-2.691 6-6-2.691-6-6-6z"/><circle cx="164" cy="150" r="4"/><circle cx="124" cy="150" r="4"/></g><g><path d="m159.049 114.885c2.782 5.74 8.174 9.906 14.591 10.876-.229 1.358-.39 2.761-.39 4.239 0 8.836 4.365 16 9.75 16s9.75-7.164 9.75-16c0-2.312-.311-4.491-.858-6.462-.63-2.267-.309-4.684.9-6.562 2.026-3.15 3.209-6.919 3.209-10.976 0-11.046-8.73-20-19.5-20-2.913 0-5.672.66-8.149 1.839-2.5 1.189-5.448.368-6.786-2.491-3.142-6.712-9.82-11.348-17.566-11.348s-14.424 4.636-17.565 11.348c-1.338 2.859-4.286 3.68-6.786 2.491-2.477-1.179-5.236-1.839-8.149-1.839-10.77 0-19.5 8.954-19.5 20 0 4.056 1.183 7.826 3.209 10.976 1.208 1.878 1.529 4.295.899 6.562-.547 1.971-.858 4.15-.858 6.462 0 8.836 4.365 16 9.75 16s9.75-7.164 9.75-16c0-1.478-.161-2.88-.39-4.239 6.417-.97 11.809-5.136 14.591-10.876" fill="#ffce56"/><path d="m183 150c-7.711 0-13.75-8.785-13.75-20 0-.393.008-.785.027-1.182-5.973-1.971-10.992-6.336-13.828-12.188-.965-1.988-.137-4.381 1.852-5.346 1.992-.955 4.379-.135 5.344 1.854 2.27 4.672 6.602 7.912 11.594 8.668 1.062.16 2.016.74 2.645 1.611.629.869.883 1.955.703 3.014-.23 1.342-.336 2.477-.336 3.568 0 7.326 3.406 12 5.75 12s5.75-4.674 5.75-12c0-1.873-.238-3.688-.715-5.393-.941-3.393-.434-6.965 1.398-9.799 1.676-2.613 2.566-5.662 2.566-8.809 0-8.822-6.953-16-15.5-16-2.242 0-4.406.488-6.43 1.451-2.238 1.068-4.719 1.209-6.973.4-2.254-.811-4.086-2.518-5.156-4.811-2.609-5.573-7.953-9.038-13.941-9.038s-11.332 3.465-13.945 9.045c-1.066 2.289-2.898 3.996-5.152 4.807-2.258.807-4.73.668-6.973-.4-2.024-.964-4.188-1.452-6.43-1.452-8.547 0-15.5 7.178-15.5 16 0 3.146.891 6.195 2.574 8.814 1.824 2.828 2.332 6.4 1.391 9.793-.477 1.705-.715 3.52-.715 5.393 0 7.326 3.406 12 5.75 12s5.75-4.674 5.75-12c0-1.092-.105-2.227-.336-3.568-.18-1.059.074-2.145.703-3.014.629-.871 1.582-1.451 2.645-1.611 4.992-.756 9.324-3.996 11.594-8.668.965-1.99 3.355-2.811 5.344-1.854 1.988.965 2.816 3.357 1.852 5.346-2.836 5.852-7.855 10.217-13.828 12.188.02.396.027.789.027 1.182 0 11.215-6.039 20-13.75 20s-13.75-8.785-13.75-20c0-2.596.34-5.129 1.004-7.533.328-1.176.176-2.418-.406-3.322-2.521-3.921-3.849-8.464-3.849-13.146 0-13.234 10.543-24 23.5-24 3.445 0 6.766.75 9.867 2.229.305.145.594.176.832.094.238-.086.445-.311.609-.668 3.887-8.298 12.208-13.655 21.192-13.655s17.305 5.357 21.188 13.65c.168.361.375.586.613.672.242.08.527.047.832-.094 3.101-1.478 6.422-2.228 9.867-2.228 12.957 0 23.5 10.766 23.5 24 0 4.682-1.328 9.225-3.84 13.139-.59.91-.742 2.152-.414 3.328.664 2.404 1.004 4.938 1.004 7.533 0 11.215-6.039 20-13.75 20z" fill="#4c241d"/></g><g><g><path d="m135.465 166c-2.585 0-3.475 1.105-3.248 2.282 1.065 5.536 5.936 9.718 11.783 9.718s10.718-4.182 11.783-9.718c.226-1.177-.664-2.282-1.862-2.282z" fill="#e66353"/><path d="m144 182c-7.656 0-14.266-5.451-15.715-12.963-.316-1.676.113-3.363 1.172-4.645.906-1.092 2.684-2.393 6.008-2.393h18.457c1.758 0 3.41.777 4.531 2.133 1.133 1.365 1.594 3.148 1.262 4.893-1.449 7.524-8.059 12.975-15.715 12.975zm-6.938-12c1.398 2.414 4.016 4 6.938 4s5.535-1.584 6.934-4zm16.86 0h.039z" fill="#4c241d"/></g></g><path d="m144 254c-16.883 0-31.695-5.941-42.84-17.184l5.68-5.633c9.746 9.833 22.25 14.817 37.16 14.817 14.906 0 27.406-4.984 37.16-14.816l5.68 5.633c-11.152 11.242-25.965 17.183-42.84 17.183z" fill="#4c241d"/></g></svg>