<svg height="512pt" viewBox="0 0 512 512" width="512pt" xmlns="http://www.w3.org/2000/svg" xmlns:xlink="http://www.w3.org/1999/xlink"><linearGradient id="a" gradientUnits="userSpaceOnUse" x1="0" x2="512" y1="256" y2="256"><stop offset="0" stop-color="#80d8ff"/><stop offset="1" stop-color="#ea80fc"/></linearGradient><path d="m492 386h-472c-11.046875 0-20 8.953125-20 20v86c0 11.046875 8.953125 20 20 20h472c11.046875 0 20-8.953125 20-20v-86c0-11.046875-8.953125-20-20-20zm-20 86h-432v-46h432zm-325.550781-236.652344c7.144531-8.425781 19.761719-9.46875 28.1875-2.324218l61.363281 52v-265.023438c0-11.046875 8.953125-20 20-20s20 8.953125 20 20v265.023438l61.359375-52c8.429687-7.144532 21.050781-6.101563 28.191406 2.324218 7.140625 8.429688 6.097657 21.046875-2.328125 28.1875l-94.292968 79.910156c-7.425782 6.277344-18.382813 6.320313-25.859376 0l-94.292968-79.910156c-8.425782-7.140625-9.46875-19.761718-2.328125-28.1875zm0 0" fill="url(#a)"/></svg>