<svg height="512pt" viewBox="-16 0 512 512.00004" width="512pt" xmlns="http://www.w3.org/2000/svg"><path d="m390.027344 286c0 8.285156-6.714844 15-15 15-8.28125 0-15-6.714844-15-15s6.71875-15 15-15c8.285156 0 15 6.714844 15 15zm0 0"/><path d="m150 15v166h-135c-8.285156 0-15 6.714844-15 15v60c0 8.285156 6.714844 15 15 15h135v136c0 8.285156 6.714844 15 15 15h135v75c0 5.402344 2.90625 10.390625 7.609375 13.054688 4.722656 2.671874 10.492187 2.578124 15.109375-.191407l150-90c4.515625-2.710937 7.28125-7.59375 7.28125-12.863281v-392c0-8.121094-6.542969-14.898438-14.832031-14.9921875-.058594 0-.113281-.0078125-.167969-.0078125h-300c-8.285156 0-15 6.714844-15 15zm-120 226v-30h135c8.285156 0 15-6.714844 15-15v-1.972656l47.957031 31.972656-47.957031 31.972656v-1.972656c0-8.285156-6.714844-15-15-15zm420 157.507812-120 72v-357.015624l120-72zm-39.15625-368.507812-103.5625 62.136719c-4.515625 2.710937-7.28125 7.59375-7.28125 12.863281v287h-120v-97.972656l83.320312-55.546875c4.171876-2.78125 6.679688-7.464844 6.679688-12.480469s-2.507812-9.699219-6.679688-12.480469l-83.320312-55.546875v-127.972656zm0 0"/></svg>