<svg height="512pt" viewBox="0 0 512.00033 512" width="512pt" xmlns="http://www.w3.org/2000/svg" xmlns:xlink="http://www.w3.org/1999/xlink"><linearGradient id="a" gradientUnits="userSpaceOnUse" x1="0" x2="512" y1="256.000165" y2="256.000165"><stop offset="0" stop-color="#80d8ff"/><stop offset="1" stop-color="#ea80fc"/></linearGradient><path d="m229.144531 492c0 11.046875-8.957031 20-20.003906 20h-189.140625c-11.046875 0-20-8.953125-20-20v-472c0-11.046875 8.953125-20 20-20h189.144531c11.042969 0 20 8.953125 20 20s-8.953125 20-20 20h-169.144531v432h169.140625c11.046875 0 20.003906 8.953125 20.003906 20zm277.007813-250.144531-113.136719-113.136719c-7.8125-7.808594-20.472656-7.808594-28.285156 0-7.808594 7.8125-7.808594 20.472656 0 28.285156l78.996093 78.996094h-347.722656c-11.046875 0-20 8.953125-20 20s8.953125 20 20 20h347.722656l-78.996093 78.992188c-7.808594 7.8125-7.808594 20.476562 0 28.285156 7.8125 7.8125 20.476562 7.808594 28.285156 0l113.140625-113.136719c2.683594-2.675781 4.695312-6.308594 5.472656-10.234375 1.246094-6.292969-.648437-13.226562-5.476562-18.050781zm0 0" fill="url(#a)"/></svg>