<svg id="Layer_1" height="512" viewBox="0 0 128 128" width="512" xmlns="http://www.w3.org/2000/svg" xmlns:xlink="http://www.w3.org/1999/xlink" data-name="Layer 1"><linearGradient id="linear-gradient" gradientUnits="userSpaceOnUse" x1="101.11" x2="10.232" y1="109.439" y2="18.561"><stop offset="0" stop-color="#1bce89"/><stop offset="1" stop-color="#4e8ed5"/></linearGradient><path d="m97.174 74v38.65a1.75 1.75 0 0 1 -1.75 1.75h-46.791v7.1a1.751 1.751 0 0 1 -2.461 1.6l-25.072-11.144a1.75 1.75 0 0 1 1.422-3.2l22.612 10.051v-67.307a1.75 1.75 0 0 1 3.5 0v59.569l.337-.169h44.7v-36.9a1.75 1.75 0 0 1 3.5 0zm-85.848-7.333v28.666a1.75 1.75 0 0 0 3.5 0v-28.666a1.75 1.75 0 0 0 -3.5 0zm110.836-3.9-12.51-12.511a1.75 1.75 0 0 0 -2.475 2.475l9.523 9.519h-53.276a1.75 1.75 0 0 0 0 3.5h53.276l-9.523 9.523a1.75 1.75 0 1 0 2.475 2.475l12.51-12.511a1.749 1.749 0 0 0 0-2.474zm-108.372 42.109-4.964-2.206v-77.34l36.307-16.138v16.949a1.75 1.75 0 0 0 3.5 0v-9.21l.337.169h44.7v36.9a1.75 1.75 0 1 0 3.5 0v-38.65a1.75 1.75 0 0 0 -1.75-1.75h-46.787v-7.1a1.75 1.75 0 0 0 -2.461-1.6l-39.807 17.693a1.751 1.751 0 0 0 -1.039 1.6v79.615a1.751 1.751 0 0 0 1.039 1.6l6 2.668a1.75 1.75 0 0 0 1.422-3.2zm33.093-71.293a1.75 1.75 0 0 0 -1.75 1.75v6.917a1.75 1.75 0 0 0 3.5 0v-6.917a1.75 1.75 0 0 0 -1.75-1.75z" fill="url(#linear-gradient)"/></svg>