<svg height="400pt" viewBox="0 -1 400 399" width="400pt" xmlns="http://www.w3.org/2000/svg" xmlns:xlink="http://www.w3.org/1999/xlink"><linearGradient id="a"><stop offset=".322" stop-color="#a163f5"/><stop offset=".466" stop-color="#b074ee"/><stop offset=".752" stop-color="#d8a1dd"/><stop offset=".898" stop-color="#efbad3"/></linearGradient><linearGradient id="b" gradientTransform="matrix(1 0 0 -1 -56 457.2)" gradientUnits="userSpaceOnUse" x1="240.225" x2="240.225" xlink:href="#a" y1="-17" y2="508.0609"/><linearGradient id="c" gradientTransform="matrix(1 0 0 -1 -56 457.2)" gradientUnits="userSpaceOnUse" x1="271.775" x2="271.775" xlink:href="#a" y1="-17" y2="508.0609"/><path d="m198.699219 20.5c31.402343 0 62.902343 8.898438 91 25.800781 17.800781 10.699219 33.902343 24.199219 47.5 40l-47-1.601562c-5.5-.199219-10.097657 4.101562-10.300781 9.699219-.199219 5.5 4.101562 10.101562 9.703124 10.300781l65 2.101562c5.097657 2.097657 11-.300781 13.097657-5.402343 1-2.398438 1-5.199219 0-7.597657l-2.097657-65c-.101562-5.5-4.703124-9.902343-10.203124-9.800781s-9.898438 4.699219-9.796876 10.199219v.199219l1.199219 37.5c-13.800781-14.699219-29.5-27.398438-46.699219-37.796876-31.203124-18.703124-66.300781-28.601562-101.300781-28.601562-56 0-107.601562 23.101562-145.402343 65-33.398438 37.101562-53.398438 87.101562-53.398438 133.699219 0 5.5 4.5 10 10 10s10-4.5 10-10c0-41.800781 18-86.800781 48.199219-120.300781 33.902343-37.699219 80.300781-58.398438 130.5-58.398438zm0 0" fill="url(#b)"/><path d="m390 189.199219c-5.5 0-10 4.5-10 10 0 41.800781-18 86.800781-48.199219 120.300781-33.902343 37.699219-80.199219 58.398438-130.5 58.398438-31.402343 0-62.902343-8.898438-91-25.796876-17.800781-10.703124-33.902343-24.203124-47.5-40l47 1.5c5.5.199219 10.097657-4.101562 10.300781-9.703124.199219-5.5-4.101562-10.097657-9.703124-10.296876l-65-2.101562c-5.097657-2.101562-11 .300781-13.097657 5.398438-1 2.402343-1 5.203124 0 7.601562l2.097657 65c.101562 5.5 4.703124 9.898438 10.203124 9.800781 5.5-.101562 9.898438-4.699219 9.796876-10.199219 0-.101562 0-.101562 0-.203124l-1.199219-37.5c13.800781 14.703124 29.5 27.402343 46.699219 37.800781 31.203124 18.699219 66.300781 28.601562 101.300781 28.601562 56 0 107.601562-23.101562 145.402343-65 33.398438-37 53.398438-87 53.398438-133.601562 0-5.5-4.5-10-10-10zm0 0" fill="url(#c)"/></svg>