<svg height="400pt" viewBox="0 -2 400 400" width="400pt" xmlns="http://www.w3.org/2000/svg" xmlns:xlink="http://www.w3.org/1999/xlink"><linearGradient id="a" gradientTransform="matrix(1 0 0 -1 -56 455.747)" gradientUnits="userSpaceOnUse" x1="256" x2="256" y1="3.998" y2="508.995"><stop offset=".322" stop-color="#a163f5"/><stop offset=".466" stop-color="#b074ee"/><stop offset=".752" stop-color="#d8a1dd"/><stop offset=".898" stop-color="#efbad3"/></linearGradient><path d="m335.273438 46.609375h-7.074219c-1.808594-26.21875-23.589844-46.5742188-49.871094-46.609375h-228.328125c-27.601562.03125-49.96875 22.398438-50 50v13.335938c.03125 27.601562 22.398438 49.96875 50 50h228.324219c26.328125-.03125 48.128906-20.457032 49.878906-46.726563h7.070313c24.703124 0 44.726562 20.023437 44.726562 44.726563 0 24.699218-20.023438 44.722656-44.726562 44.722656h-180.046876c-5.519531 0-10 4.476562-10 10v66.152344h-28.585937c-5.523437 0-10 4.476562-10 10v104.699218c.027344 26.820313 21.765625 48.558594 48.585937 48.585938 26.824219-.027344 48.558594-21.765625 48.589844-48.585938v-104.699218c0-5.523438-4.476562-10-10-10h-28.589844v-56.152344h170.046876c35.75 0 64.726562-28.976563 64.726562-64.722656 0-35.75-28.976562-64.726563-64.726562-64.726563zm-26.949219 16.726563c-.019531 16.5625-13.4375 29.980468-30 30h-228.324219c-16.5625-.019532-29.980469-13.4375-30-30v-13.335938c.019531-16.5625 13.4375-29.980469 30-30h228.324219c16.5625.019531 29.980469 13.4375 30 30zm-124.507813 283.570312c.003906 15.789062-12.789062 28.589844-28.578125 28.597656-15.789062.003906-28.59375-12.792968-28.597656-28.578125v-94.71875h24.4375c2.632813 1.214844 5.667969 1.214844 8.300781 0h24.4375zm0 0" fill="url(#a)"/></svg>