<svg id="Capa_1" enable-background="new 0 0 512 512" height="512" viewBox="0 0 512 512" width="512" xmlns="http://www.w3.org/2000/svg"><g><g fill="#ffb7bf"><path d="m460.161 414.704c-2.74-31.165-50.108-31.196-51.606.382-.194 36.629 53.334 36.179 51.606-.382z"/><path d="m511.528 400.186c-2.405-14.814-6.354-57.653-24.424-61.901-3.102-3.032-7.186-6.137-12.457-9.218-28.991-8.917-59.361-7.557-88.941-3.918-34.767 1.722-35.084 16.516-49.807 41.607-50.347 18.433-114.009-20.65-160.226 13.565-14.08 12.684-20.355 33.872-15.562 52.212 15.214 39.521 70.462 35.538 105.156 34.914 20.091-2.232 16.791-32.832-3.305-30.734-18.354 1.326-79 8.487-77.658-19.041 2.007-45.708 79.735-23.17 110.081-25.184 17.782-.048 38.838.063 54.477-10.531 11.359-9.516 10.735-29.823 24.391-35.954 30.578-5.081 63.479-8.407 93.108 2.197.959.72 1.853 1.513 2.676 2.372-1.314 15.707 21.876 41.531 13.878 85.996-4.201 18.662-6.957 49.714-31.937 49.661-5.68.299-27.1.493-33.055 1.038-27.069 6.769-63.688-3.876-66.65-35.628-.851-8.704-14.511-7.54-13.852 1.211.863 41.455 46.891 61.218 83.186 54.49 31.012.866 60.093 6.361 75.642-27.943 11.203-24.606 17.596-52.05 15.279-79.211zm-175.693-33.331c.003-.002.01-.007.013-.009-.007.012-.013.023-.02.034-.007-.019-.004-.028.007-.025z"/></g><path d="m367.023 202.246c28.148-45.412 27.546-108.174-6.727-150.19-78.833-93.121-229.165-45.007-232.422 79.346-.402 44.137 22.745 88.363 58.759 113.815-14.739 3.132-29.198 7.611-43.176 13.611-64.111 26.768-115.82 82.701-135.515 149.522-4.223 20.37-12.571 43.11-4.666 64.657 8.67 22.659 35.119 33.575 57.66 34.582 23.392 1.373 45.933-5.588 68.8-3.982 5.008.72 9.68-2.913 10.033-7.995 1.028-18.307-45.373-5.99-55.543-6.695-23.44 2.416-52.102.593-62.904-22.463-5.28-16.954 2.628-35.214 6.358-52.169 31.356-100.463 141.918-150.112 241.191-145.867 23.49-.341 47.049.54 70.051 5.474 9.869 2.327 14.723-12.519 5.391-16.522-7.885-3.571-16.076-6.395-24.369-8.614 19.215-11.243 35.705-27.188 47.079-46.51zm-130.37 32.84c-49.112-7.498-90.939-53.537-91.351-103.842 1.142-99.866 115.906-143.767 187.316-77.182 38.42 35.406 37.747 97.825 6.773 137.804-23.096 31.499-64.023 49.415-102.738 43.22z" fill="#00efc0"/></g></svg>