<svg id="avatar7" enable-background="new 0 0 300 300" height="512" viewBox="0 0 300 300" width="512" xmlns="http://www.w3.org/2000/svg" xmlns:xlink="http://www.w3.org/1999/xlink"><linearGradient id="SVGID_1_" gradientUnits="userSpaceOnUse" x1="72.187" x2="261.83" y1="233.333" y2="43.69"><stop offset="0" stop-color="#107eff"/><stop offset="1" stop-color="#8f16ff"/></linearGradient><g><path d="m148 38.828c-61.758 0-112 50.242-112 112s50.242 112 112 112 112-50.242 112-112-50.242-112-112-112zm-46.979 204.739c1.832-2.677 4.178-5.154 6.87-7.432 10.791 9.589 24.552 14.693 40.109 14.693 15.551 0 29.311-5.104 40.108-14.694 2.692 2.278 5.039 4.755 6.871 7.433-14.122 7.183-30.079 11.261-46.979 11.261s-32.857-4.078-46.979-11.261zm91.295-96.707c4.261.17 7.684 3.664 7.684 7.968 0 4.412-3.59 8-8 8-.307 0-.603-.057-.904-.091zm1.118-35.223c-1.832 2.834-2.34 6.406-1.398 9.799.477 1.705.715 3.52.715 5.393 0 7.326-3.406 12-5.75 12s-5.75-4.674-5.75-12c0-1.092.106-2.227.336-3.568.18-1.059-.074-2.145-.703-3.014-.629-.871-1.582-1.451-2.645-1.611-4.992-.756-9.324-3.996-11.594-8.668-.965-1.988-3.352-2.809-5.344-1.854-1.988.965-2.816 3.357-1.852 5.346.952 1.964 2.223 3.684 3.621 5.279-4.251 2.602-9.524 4.09-15.07 4.09-5.553 0-10.826-1.484-15.073-4.086 1.399-1.596 2.672-3.317 3.624-5.283.965-1.988.137-4.381-1.852-5.346-1.988-.957-4.379-.137-5.344 1.854-2.27 4.672-6.602 7.912-11.594 8.668-1.062.16-2.016.74-2.645 1.611-.629.869-.883 1.955-.703 3.014.23 1.342.336 2.477.336 3.568 0 7.326-3.406 12-5.75 12s-5.75-4.674-5.75-12c0-1.873.238-3.688.715-5.393.941-3.393.434-6.965-1.391-9.793-1.684-2.619-2.574-5.668-2.574-8.814 0-8.822 6.953-16 15.5-16 2.242 0 4.406.488 6.43 1.451 2.242 1.068 4.715 1.207 6.973.4 2.254-.811 4.086-2.518 5.152-4.807 2.613-5.58 7.957-9.045 13.945-9.045s11.332 3.465 13.941 9.041c1.07 2.293 2.902 4 5.156 4.811 2.254.809 4.734.668 6.973-.4 2.023-.963 4.188-1.451 6.43-1.451 8.547 0 15.5 7.178 15.5 16 .001 3.146-.89 6.194-2.565 8.808zm-89.752 35.223 1.221 15.878c-.301.034-.597.089-.904.089-4.41 0-8-3.588-8-8 .001-4.302 3.423-7.796 7.683-7.967zm7.992-.413c6.386-1.765 11.076-9.741 11.076-19.619 0-.393-.008-.785-.027-1.182 1.278-.422 2.485-1.005 3.664-1.637 5.859 4.352 13.577 6.818 21.614 6.818 8.028 0 15.747-2.469 21.613-6.819 1.179.632 2.387 1.216 3.665 1.637-.02.396-.027.789-.027 1.182 0 9.877 4.689 17.853 11.074 19.619l-1.551 20.18c-1.391 18.057-16.664 32.201-34.773 32.201s-33.383-14.145-34.773-32.201zm28.326 61.821v-2.207c2.598.499 5.272.767 8 .767s5.402-.268 8-.767v2.207c0 6.871 3.794 12.981 9.704 16.213-4.959 4.067-11.164 6.347-17.704 6.347s-12.745-2.28-17.704-6.347c5.91-3.232 9.704-9.343 9.704-16.213zm61.976 31.426c-6.257-9.506-17.09-17.168-30.417-21.331-4.52-1.412-7.559-5.469-7.559-10.096v-4.58c13.646-5.554 23.923-17.972 26.32-33.03.56.059 1.111.17 1.68.17 8.824 0 16-7.178 16-16 0-6.905-4.42-12.747-10.561-14.984 2.044-3.482 3.311-7.974 3.311-13.016 0-2.596-.34-5.129-1.004-7.533-.328-1.176-.176-2.418.414-3.328 2.512-3.914 3.84-8.457 3.84-13.139 0-13.234-10.543-24-23.5-24-3.445 0-6.766.75-9.867 2.229-.305.141-.59.174-.832.094-.238-.086-.445-.311-.613-.672-3.883-8.293-12.203-13.65-21.188-13.65s-17.305 5.357-21.191 13.654c-.164.357-.371.582-.609.668-.238.082-.527.051-.832-.094-3.102-1.479-6.422-2.229-9.867-2.229-12.957 0-23.5 10.766-23.5 24 0 4.682 1.328 9.225 3.848 13.145.582.904.734 2.146.406 3.322-.664 2.404-1.004 4.938-1.004 7.533 0 5.042 1.267 9.533 3.311 13.016-6.142 2.238-10.562 8.081-10.562 14.985 0 8.822 7.176 16 16 16 .569 0 1.121-.108 1.681-.167 2.397 15.055 12.676 27.472 26.319 33.026v4.581c0 4.627-3.039 8.684-7.559 10.096-13.327 4.163-24.16 11.825-30.417 21.331-29.971-18.272-50.024-51.271-50.024-88.867 0-57.346 46.652-104 104-104s104 46.654 104 104c0 37.596-20.053 70.595-50.024 88.866zm-136.506-194.866c0-2.502 2.028-4.53 4.53-4.53s4.53 2.028 4.53 4.53c0 2.501-2.028 4.529-4.53 4.529s-4.53-2.027-4.53-4.529zm174.046 4.828 2.828-2.828-2.828-2.828c-1.562-1.562-1.562-4.094 0-5.656s4.094-1.562 5.656 0l2.828 2.828 2.828-2.828c1.562-1.562 4.094-1.562 5.656 0s1.562 4.094 0 5.656l-2.828 2.828 2.828 2.828c1.562 1.562 1.562 4.094 0 5.656-.781.781-1.805 1.172-2.828 1.172s-2.047-.391-2.828-1.172l-2.828-2.828-2.828 2.828c-.781.781-1.805 1.172-2.828 1.172s-2.047-.391-2.828-1.172c-1.563-1.562-1.563-4.093 0-5.656zm10.484 169.172c-7.719 0-14 6.281-14 14s6.281 14 14 14 14-6.281 14-14-6.281-14-14-14zm0 20c-3.309 0-6-2.691-6-6s2.691-6 6-6 6 2.691 6 6-2.691 6-6 6zm-86-92c0-2.209 1.791-4 4-4s4 1.791 4 4-1.791 4-4 4-4-1.791-4-4zm-40 0c0-2.209 1.791-4 4-4s4 1.791 4 4-1.791 4-4 4-4-1.791-4-4zm24 32c7.656 0 14.266-5.451 15.715-12.975.332-1.744-.129-3.527-1.262-4.893-1.121-1.355-2.773-2.133-4.531-2.133h-18.457c-3.324 0-5.102 1.301-6.008 2.393-1.059 1.281-1.488 2.969-1.172 4.645 1.449 7.512 8.059 12.963 15.715 12.963zm6.934-12c-1.398 2.416-4.012 4-6.934 4s-5.539-1.586-6.938-4z" fill="url(#SVGID_1_)"/></g></svg>